<?xml version="1.0" encoding="UTF-8"?>
<svg id="Layer_1" xmlns="http://www.w3.org/2000/svg" version="1.1" viewBox="0 0 850.39 850.39">
  <defs><style>.st0{fill:#f8f7f8;}</style></defs>
  <g>
    <path class="st0" d="M367.08,186.48l-19.85-25.6h-8.11v42.35h8.11v-29.53s18.21,24.45,18.21,24.45h1.91l18-24.12s0,.33,0,1.07v28.12h9.14v-42.35h-7.91l-19.51,25.6Z"/>
    <rect class="st0" x="422.37" y="160.88" width="9.89" height="42.32"/>
    <polygon class="st0" points="479.9 180.82 507.94 160.88 493.61 160.88 470.07 178.53 470.07 160.88 460.12 160.88 460.12 203.16 470.07 203.16 470.07 184.54 495.52 203.16 511.27 203.16 479.9 180.82"/>
  </g>
  <g>
    <polygon class="st0" points="113.8 253.04 425.19 431.22 304.1 540.21 113.8 253.04"/>
    <polygon class="st0" points="736.59 253.04 425.19 431.22 546.29 540.21 736.59 253.04"/>
  </g>
  <circle class="st0" cx="425.2" cy="558.64" r="19.56"/>
</svg>
